<svg width="802" height="518" viewBox="0 0 802 518" fill="none" xmlns="http://www.w3.org/2000/svg">
<path d="M431.182 510.476H0V512.351H431.182V510.476Z" fill="#3F3D56"/>
<path d="M600.112 448L600.112 446.507C602.789 446.506 605.507 446.445 608.191 446.326L608.245 447.818C605.543 447.938 602.807 447.999 600.112 448ZM591.981 447.827C589.289 447.711 586.558 447.532 583.863 447.296L583.969 445.807C586.646 446.042 589.36 446.219 592.034 446.335L591.981 447.827ZM616.363 447.277L616.256 445.788C618.928 445.551 621.633 445.25 624.294 444.893L624.456 446.376C621.776 446.735 619.054 447.038 616.363 447.277V447.277ZM575.77 446.406C573.085 446.05 570.375 445.629 567.715 445.156L567.929 443.681C570.57 444.151 573.262 444.569 575.93 444.923L575.77 446.406ZM632.508 445.115L632.293 443.641C634.934 443.168 637.608 442.626 640.241 442.033L640.509 443.495C637.859 444.094 635.167 444.639 632.508 445.115H632.508ZM559.713 443.545C557.062 442.95 554.392 442.288 551.775 441.577L552.095 440.126C554.695 440.833 557.347 441.491 559.98 442.081L559.713 443.545ZM648.445 441.517L648.123 440.067C650.73 439.356 653.356 438.576 655.927 437.75L656.302 439.185C653.713 440.016 651.07 440.801 648.445 441.517V441.517ZM543.916 439.254C541.319 438.423 538.706 437.523 536.148 436.58L536.573 435.162C539.114 436.1 541.71 436.994 544.289 437.819L543.916 439.254ZM664.066 436.5L663.639 435.083C666.181 434.141 668.741 433.129 671.249 432.072L671.727 433.468C669.203 434.532 666.625 435.552 664.066 436.5ZM528.464 433.549C525.937 432.487 523.392 431.352 520.9 430.175L521.427 428.801C523.903 429.971 526.431 431.098 528.941 432.152L528.464 433.549ZM679.25 430.105L678.721 428.731C681.183 427.565 683.655 426.329 686.067 425.057L686.646 426.406C684.217 427.686 681.728 428.931 679.25 430.105V430.105ZM513.467 426.465C511.021 425.177 508.569 423.818 506.178 422.424L506.805 421.103C509.179 422.486 511.615 423.837 514.044 425.116L513.467 426.465ZM693.905 422.377L693.277 421.056C695.649 419.672 698.025 418.217 700.338 416.733L701.013 418.025C698.684 419.519 696.292 420.984 693.905 422.377H693.905ZM499.045 418.062C496.699 416.558 494.355 414.984 492.079 413.385L492.799 412.124C495.06 413.712 497.388 415.275 499.719 416.77L499.045 418.062ZM707.96 413.359L707.239 412.097C709.496 410.511 711.76 408.85 713.968 407.157L714.733 408.385C712.511 410.089 710.232 411.763 707.96 413.359H707.96ZM485.289 408.403C483.062 406.696 480.841 404.92 478.687 403.123L479.496 401.93C481.636 403.715 483.843 405.479 486.054 407.175L485.289 408.403ZM721.324 403.113L720.514 401.92C722.649 400.14 724.786 398.281 726.868 396.395L727.72 397.552C725.625 399.45 723.473 401.321 721.324 403.113V403.113ZM472.282 397.553C470.192 395.659 468.107 393.692 466.086 391.705L466.979 390.588C468.987 392.561 471.058 394.516 473.134 396.397L472.282 397.553ZM733.911 391.709L733.018 390.592C735.024 388.62 737.022 386.576 738.955 384.518L739.888 385.596C737.942 387.667 735.931 389.724 733.911 391.709H733.911ZM460.106 385.589C458.164 383.52 456.229 381.375 454.354 379.213L455.325 378.178C457.187 380.325 459.11 382.457 461.039 384.511L460.106 385.589ZM745.641 379.219L744.67 378.184C746.526 376.043 748.371 373.828 750.153 371.601L751.16 372.592C749.366 374.834 747.509 377.064 745.641 379.219V379.219ZM448.837 372.59C447.042 370.345 445.268 368.036 443.565 365.726L444.608 364.781C446.299 367.076 448.061 369.37 449.845 371.598L448.837 372.59ZM756.437 365.724L755.394 364.779C757.096 362.472 758.775 360.1 760.386 357.728L761.462 358.626C759.84 361.014 758.149 363.402 756.437 365.724V365.724ZM438.546 358.637C436.923 356.247 435.322 353.79 433.788 351.332L434.895 350.482C436.419 352.924 438.009 355.365 439.621 357.739L438.546 358.637ZM766.227 351.307L765.12 350.459C766.649 348.006 768.153 345.49 769.587 342.982L770.724 343.781C769.28 346.306 767.767 348.838 766.227 351.307V351.307ZM429.299 343.823C427.856 341.3 426.439 338.71 425.087 336.122L426.252 335.374C427.595 337.944 429.003 340.517 430.436 343.023L429.299 343.823ZM774.946 336.058L773.781 335.31C775.129 332.727 776.445 330.083 777.692 327.455L778.884 328.15C777.629 330.797 776.304 333.457 774.946 336.058H774.946ZM421.16 328.241C419.905 325.599 418.681 322.892 417.523 320.194L418.739 319.552C419.89 322.232 421.105 324.921 422.351 327.545L421.16 328.241ZM782.531 320.07L781.315 319.429C782.467 316.74 783.587 313.986 784.642 311.245L785.881 311.831C784.819 314.591 783.692 317.363 782.531 320.07V320.07ZM414.183 311.995C413.122 309.245 412.1 306.439 411.145 303.655L412.404 303.124C413.352 305.888 414.367 308.676 415.421 311.407L414.183 311.995ZM788.928 303.444L787.669 302.915C788.623 300.121 789.539 297.274 790.388 294.453L791.665 294.925C790.81 297.766 789.889 300.632 788.928 303.444V303.444ZM408.407 295.161C407.55 292.323 406.734 289.426 405.982 286.552L407.275 286.137C408.022 288.99 408.833 291.868 409.684 294.687L408.407 295.161ZM794.082 286.312L792.788 285.897C793.531 283.048 794.232 280.136 794.874 277.242L796.181 277.598C795.536 280.512 794.829 283.444 794.082 286.312V286.312ZM403.874 277.841C403.227 274.933 402.625 271.973 402.085 269.043L403.405 268.744C403.941 271.655 404.538 274.595 405.181 277.484L403.874 277.841ZM797.96 268.798L796.64 268.501C797.172 265.592 797.659 262.627 798.086 259.687L799.416 259.925C798.986 262.884 798.496 265.869 797.96 268.798V268.798ZM400.62 260.171C400.188 257.223 399.804 254.219 399.479 251.242L400.816 251.062C401.139 254.02 401.521 257.003 401.95 259.932L400.62 260.171ZM800.548 250.992L799.211 250.814C799.531 247.858 799.801 244.859 800.013 241.901L801.356 242.019C801.142 244.997 800.87 248.016 800.548 250.992V250.992ZM398.663 242.269C398.445 239.286 398.28 236.257 398.17 233.266L399.515 233.206C399.624 236.177 399.789 239.186 400.005 242.149L398.663 242.269ZM801.84 233.017L800.494 232.958C800.599 229.982 800.653 226.969 800.653 224.001L800.653 223.506H801.999L802 223.997C802 226.988 801.946 230.021 801.84 233.017H801.84ZM399.347 224.248H398L398 223.997C398 221.084 398.051 218.134 398.152 215.232L399.498 215.29C399.398 218.173 399.347 221.103 399.347 224.001L399.347 224.248ZM800.475 214.551C800.364 211.585 800.197 208.576 799.977 205.608L801.32 205.486C801.54 208.475 801.709 211.503 801.82 214.489L800.475 214.551ZM399.969 206.346L398.627 206.23C398.838 203.239 399.107 200.22 399.426 197.254L400.763 197.431C400.447 200.377 400.18 203.376 399.969 206.346ZM799.158 196.695C798.833 193.75 798.449 190.767 798.015 187.827L799.345 187.586C799.781 190.545 800.168 193.549 800.494 196.515L799.158 196.695ZM401.878 188.558L400.549 188.322C400.975 185.365 401.462 182.379 401.997 179.447L403.316 179.742C402.786 182.655 402.302 185.621 401.878 188.558ZM796.55 179.017C796.01 176.099 795.409 173.159 794.766 170.28L796.073 169.92C796.721 172.819 797.325 175.779 797.869 178.716L796.55 179.017ZM405.074 170.998L403.766 170.644C404.407 167.738 405.11 164.805 405.857 161.927L407.151 162.34C406.409 165.199 405.711 168.112 405.074 170.998H405.074ZM792.663 161.629C791.914 158.777 791.101 155.901 790.246 153.081L791.523 152.606C792.383 155.445 793.202 158.34 793.956 161.212L792.663 161.629ZM409.543 153.783L408.265 153.312C409.117 150.468 410.035 147.601 410.993 144.789L412.253 145.317C411.301 148.11 410.389 150.958 409.543 153.783ZM787.517 144.648C786.561 141.87 785.543 139.085 784.492 136.368L785.73 135.779C786.788 138.514 787.813 141.319 788.776 144.115L787.517 144.648ZM415.271 136.983L414.031 136.398C415.09 133.64 416.214 130.866 417.373 128.155L418.59 128.795C417.439 131.487 416.322 134.243 415.271 136.983V136.983ZM781.166 128.227C780.013 125.55 778.796 122.862 777.546 120.238L778.737 119.541C779.995 122.183 781.221 124.888 782.381 127.584L781.166 128.227ZM422.205 120.764L421.012 120.071C422.268 117.417 423.59 114.755 424.942 112.158L426.109 112.904C424.765 115.484 423.452 118.129 422.205 120.764L422.205 120.764ZM773.637 112.416C772.29 109.845 770.88 107.273 769.445 104.771L770.582 103.97C772.026 106.489 773.445 109.078 774.801 111.665L773.637 112.416ZM430.294 105.228L429.156 104.43C430.601 101.897 432.112 99.3625 433.646 96.8976L434.754 97.7459C433.23 100.194 431.729 102.712 430.294 105.228V105.228ZM764.979 97.3172C763.451 94.8763 761.858 92.4365 760.245 90.0667L761.32 89.167C762.944 91.5528 764.547 94.0086 766.085 96.4663L764.979 97.3172ZM439.48 90.4703L438.404 89.5735C440.027 87.1782 441.715 84.7879 443.422 82.4685L444.465 83.4127C442.77 85.7165 441.093 88.091 439.48 90.4703L439.48 90.4703ZM755.253 83.0303C753.554 80.7323 751.789 78.4409 750.009 76.2198L751.015 75.2275C752.808 77.4634 754.584 79.7702 756.294 82.0838L755.253 83.0303ZM449.7 76.5834L448.692 75.5939C450.48 73.3539 452.335 71.122 454.205 68.9599L455.177 69.9939C453.319 72.1413 451.477 74.3586 449.7 76.5833V76.5834ZM744.522 69.6453C742.659 67.5012 740.734 65.3728 738.801 63.3187L739.733 62.2403C741.678 64.3082 743.616 66.4509 745.491 68.6092L744.522 69.6453ZM460.885 63.6534L459.951 62.5772C461.894 60.5038 463.903 58.4446 465.922 56.4562L466.816 57.5725C464.811 59.5478 462.815 61.5939 460.885 63.6534L460.885 63.6534ZM732.856 57.2495C730.844 55.2768 728.771 53.3248 726.695 51.4483L727.546 50.2907C729.635 52.18 731.722 54.1447 733.748 56.131L732.856 57.2495ZM472.961 51.7611L472.108 50.6061C474.197 48.7084 476.347 46.8348 478.498 45.0367L479.309 46.2289C477.172 48.015 475.037 49.8765 472.961 51.7611L472.961 51.7611ZM720.326 45.9245C718.178 44.1365 715.969 42.3745 713.763 40.6872L714.527 39.4578C716.749 41.1564 718.972 42.9301 721.135 44.7301L720.326 45.9245ZM485.851 40.9829L485.084 39.7557C487.303 38.0498 489.581 36.3738 491.853 34.774L492.575 36.0348C490.318 37.6236 488.056 39.2883 485.851 40.9829V40.9829ZM707.014 35.7453C704.743 34.155 702.413 32.5949 700.088 31.1085L700.762 29.815C703.101 31.3112 705.447 32.8819 707.733 34.4827L707.014 35.7453ZM499.471 31.3918L498.795 30.0997C501.123 28.6024 503.513 27.1353 505.898 25.74L506.527 27.0606C504.158 28.4467 501.783 29.9039 499.471 31.3918V31.3918ZM692.999 26.7838C690.621 25.4021 688.184 24.0549 685.756 22.78L686.332 21.4303C688.776 22.7136 691.23 24.0699 693.624 25.4611L692.999 26.7838ZM513.732 23.0505L513.153 21.7022C515.581 20.4185 518.068 19.1709 520.546 17.9941L521.076 19.3667C518.615 20.5355 516.144 21.7747 513.732 23.0504V23.0505ZM678.369 19.1039C675.894 17.9383 673.365 16.8143 670.852 15.7621L671.328 14.365C673.858 15.4241 676.404 16.5561 678.895 17.7294L678.369 19.1039ZM528.545 16.0162L528.065 14.6206C530.585 13.5553 533.161 12.5323 535.722 11.5796L536.15 12.9957C533.607 13.9417 531.048 14.9581 528.545 16.0161V16.0162ZM663.216 12.7608C660.671 11.8249 658.074 10.9343 655.498 10.1136L655.87 8.67858C658.464 9.50472 661.078 10.4012 663.639 11.3433L663.216 12.7608ZM543.861 10.3188L543.485 8.88528C546.075 8.04968 548.717 7.26145 551.339 6.54212L551.663 7.99171C549.058 8.70623 546.433 9.48937 543.861 10.3188V10.3188ZM647.689 7.81596C645.089 7.11269 642.435 6.45827 639.802 5.87092L640.068 4.40675C642.719 4.99811 645.39 5.65726 648.008 6.36492L647.689 7.81596ZM559.543 6.01817L559.272 4.55545C561.912 3.95606 564.604 3.40775 567.272 2.92541L567.489 4.39906C564.838 4.87846 562.165 5.42316 559.543 6.01817V6.01817ZM631.852 4.28129C629.204 3.81316 626.511 3.39827 623.85 3.049L624.008 1.56587C626.688 1.91769 629.398 2.33514 632.064 2.80692L631.852 4.28129ZM575.487 3.13686L575.324 1.65444C578.002 1.29279 580.725 0.986113 583.415 0.744075L583.524 2.23231C580.852 2.47331 578.147 2.77739 575.487 3.13686H575.487ZM615.81 2.17399C613.14 1.94321 610.426 1.76894 607.744 1.65629L607.795 0.163687C610.495 0.277438 613.227 0.452835 615.914 0.685027L615.81 2.17399ZM591.588 1.68508L591.533 0.193223C594.226 0.0699939 596.962 0.00509009 599.664 0L599.666 1.49332C596.982 1.49842 594.264 1.56295 591.588 1.68508H591.588Z" fill="#CCCCCC"/>
<path d="M620.708 322.396C681.41 300.245 716.423 243.385 698.911 195.394C681.4 147.402 617.994 126.454 557.292 148.604C496.59 170.754 461.577 227.615 479.089 275.606C496.601 323.597 560.006 344.546 620.708 322.396Z" fill="#3F3D56"/>
<path d="M551.279 311.537C569.179 305.006 575.785 278.051 566.036 251.331C556.286 224.612 533.872 208.246 515.972 214.778C498.073 221.309 491.466 248.264 501.216 274.984C510.966 301.703 533.38 318.069 551.279 311.537Z" fill="white"/>
<path d="M534.039 289.087C541.822 286.247 543.91 272.379 538.704 258.111C533.498 243.844 522.968 234.579 515.186 237.419C507.404 240.259 505.315 254.127 510.521 268.395C515.728 282.663 526.257 291.927 534.039 289.087Z" fill="#3F3D56"/>
<path d="M783.81 162.619C793.646 162.619 801.619 154.646 801.619 144.81C801.619 134.974 793.646 127 783.81 127C773.974 127 766 134.974 766 144.81C766 154.646 773.974 162.619 783.81 162.619Z" fill="#FFDD57"/>
<path d="M484.246 64.4917C498.741 64.4917 510.492 52.741 510.492 38.2459C510.492 23.7507 498.741 12 484.246 12C469.751 12 458 23.7507 458 38.2459C458 52.741 469.751 64.4917 484.246 64.4917Z" fill="#FFDD57"/>
<path d="M661.81 452.619C671.646 452.619 679.619 444.646 679.619 434.81C679.619 424.974 671.646 417 661.81 417C651.974 417 644 424.974 644 434.81C644 444.646 651.974 452.619 661.81 452.619Z" fill="#FFDD57"/>
<path d="M112.347 500.806H94.4717V503.643H112.347V500.806Z" fill="#3F3D56"/>
<path d="M241.591 501.441L237.903 502.294L97.7347 502.369L96.4743 499.433C94.276 494.395 93.5215 488.846 94.2951 483.405C94.8988 479.349 96.4115 475.319 99.8474 473.568L106.068 432.139L183.616 432L213.619 456.199C213.619 456.199 227.771 455.945 235.46 465.517C238.234 469.076 239.872 473.388 240.16 477.891L240.463 482.871L241.591 501.441Z" fill="#FFDD57"/>
<path d="M210.805 518.056C220.364 518.056 228.114 510.307 228.114 500.748C228.114 491.189 220.364 483.439 210.805 483.439C201.246 483.439 193.497 491.189 193.497 500.748C193.497 510.307 201.246 518.056 210.805 518.056Z" fill="#3F3D56"/>
<path d="M210.805 509.858C215.836 509.858 219.915 505.779 219.915 500.748C219.915 495.717 215.836 491.639 210.805 491.639C205.774 491.639 201.695 495.717 201.695 500.748C201.695 505.779 205.774 509.858 210.805 509.858Z" fill="#CCCCCC"/>
<path d="M125.399 518.102C134.958 518.102 142.707 510.353 142.707 500.794C142.707 491.235 134.958 483.485 125.399 483.485C115.84 483.485 108.091 491.235 108.091 500.794C108.091 510.353 115.84 518.102 125.399 518.102Z" fill="#3F3D56"/>
<path d="M125.399 509.903C130.43 509.903 134.508 505.824 134.508 500.793C134.508 495.762 130.43 491.684 125.399 491.684C120.368 491.684 116.289 495.762 116.289 500.793C116.289 505.824 120.368 509.903 125.399 509.903Z" fill="#CCCCCC"/>
<path d="M201.698 453.37L159.828 453.389H154.717L146.088 453.395V452.765L146.082 445.177L146.076 436.657H151.817L156.928 436.65L165.981 436.644H171.092L181.544 436.638L201.698 453.37Z" fill="white"/>
<path d="M139.275 453.401L117.147 453.413L117.141 449.071V441.483L117.135 436.675H120.375L125.486 436.669L139.269 436.663L139.275 453.401Z" fill="white"/>
<path d="M148.932 465.882H146.095V471.273H148.932V465.882Z" fill="#3F3D56"/>
<path d="M195.746 461.032L195.744 458.194L190.353 458.197L190.355 461.035L195.746 461.032Z" fill="#3F3D56"/>
<path d="M192.337 447.583H192.649C193.428 447.583 194.199 447.736 194.918 448.034C195.638 448.332 196.292 448.769 196.842 449.32C197.393 449.871 197.83 450.524 198.128 451.244C198.426 451.963 198.579 452.734 198.579 453.513V453.513C198.579 455.086 197.954 456.594 196.842 457.706C195.73 458.819 194.222 459.443 192.649 459.443H192.337V447.583H192.337Z" fill="#3F3D56"/>
<path d="M240.464 482.87C238.318 483.104 236.159 482.572 234.366 481.37C232.574 480.168 231.263 478.371 230.665 476.297C230.067 474.223 230.221 472.005 231.098 470.033C231.975 468.061 233.52 466.461 235.461 465.517C238.234 469.076 239.872 473.388 240.16 477.891L240.464 482.87Z" fill="#3F3D56"/>
<path d="M156.928 436.65L146.088 452.765L146.082 445.177L151.817 436.657L156.928 436.65Z" fill="#F2F2F2"/>
<path d="M125.487 436.669L117.142 449.071V441.483L120.376 436.675L125.487 436.669Z" fill="#F2F2F2"/>
<path d="M171.092 436.644L159.828 453.389H154.717L165.981 436.644H171.092Z" fill="#F2F2F2"/>
</svg>
