<svg width="85" height="81" viewBox="0 0 85 81" fill="none" xmlns="http://www.w3.org/2000/svg">
<path d="M41.4753 6.75C21.9465 6.75 6.05859 21.8903 6.05859 40.5C6.05859 59.1098 21.9465 74.25 41.4753 74.25C61.004 74.25 76.8919 59.1098 76.8919 40.5C76.8919 36.6998 76.1977 33.0554 74.9758 29.6433L69.2414 35.1079C69.6132 36.8494 69.8086 38.6539 69.8086 40.5C69.8086 55.3871 57.0975 67.5 41.4753 67.5C25.853 67.5 13.1419 55.3871 13.1419 40.5C13.1419 25.6129 25.853 13.5 41.4753 13.5C47.2588 13.5 52.6383 15.1669 57.1291 18.0154L62.1995 13.1836C56.3629 9.15384 49.2138 6.75 41.4753 6.75ZM74.3878 11.1138L37.9336 45.8525L26.271 34.7388L21.2629 39.5112L37.9336 55.3975L79.396 15.8862L74.3878 11.1138Z" fill="#FFDD57"/>
</svg>
