<svg width="480" height="460" viewBox="0 0 480 460" fill="none" xmlns="http://www.w3.org/2000/svg">
<path d="M480 459.068H478.516C478.516 432.357 471.169 406.74 458.091 387.852C445.013 368.965 427.275 358.354 408.779 358.354C390.284 358.354 372.546 368.965 359.467 387.852C346.389 406.74 339.042 432.357 339.042 459.068H337.558C337.558 431.789 345.062 405.627 358.418 386.337C371.775 367.048 389.89 356.211 408.779 356.211C427.668 356.211 445.783 367.048 459.14 386.337C472.497 405.627 480 431.789 480 459.068V459.068Z" fill="#3F3D56"/>
<path d="M142.442 459.068H140.958C140.958 432.357 133.611 406.74 120.533 387.852C107.454 368.965 89.7165 358.354 71.221 358.354C52.7256 358.354 34.9876 368.965 21.9094 387.852C8.83108 406.74 1.48377 432.357 1.48377 459.068H0C0 431.789 7.50361 405.627 20.8601 386.337C34.2167 367.048 52.332 356.211 71.221 356.211C90.11 356.211 108.225 367.048 121.582 386.337C134.938 405.627 142.442 431.789 142.442 459.068V459.068Z" fill="#3F3D56"/>
<path d="M191.406 -9.14648H181.02V28.3535H191.406V-9.14648Z" fill="#FFDD57"/>
<path d="M190.665 25.1396H102.38V459.068H190.665V25.1396Z" fill="#FFDD57"/>
<path d="M226.275 25.1396H190.665V459.068H226.275V25.1396Z" fill="#3F3D56"/>
<path d="M131.684 62.6387H118.331V81.9244H131.684V62.6387Z" fill="white"/>
<path d="M153.199 62.6387H139.845V81.9244H153.199V62.6387Z" fill="white"/>
<path d="M174.714 62.6387H161.36V81.9244H174.714V62.6387Z" fill="white"/>
<path d="M132.056 106.568H118.702V125.854H132.056V106.568Z" fill="white"/>
<path d="M153.571 106.568H140.217V125.854H153.571V106.568Z" fill="white"/>
<path d="M175.085 106.568H161.731V125.854H175.085V106.568Z" fill="white"/>
<path d="M132.427 150.497H119.073V169.783H132.427V150.497Z" fill="white"/>
<path d="M153.941 150.497H140.587V169.783H153.941V150.497Z" fill="white"/>
<path d="M175.456 150.497H162.102V169.783H175.456V150.497Z" fill="white"/>
<path d="M132.797 194.425H119.443V213.711H132.797V194.425Z" fill="white"/>
<path d="M154.312 194.425H140.958V213.711H154.312V194.425Z" fill="white"/>
<path d="M175.827 194.425H162.473V213.711H175.827V194.425Z" fill="white"/>
<path d="M133.168 238.354H119.814V257.639H133.168V238.354Z" fill="white"/>
<path d="M154.684 238.354H141.33V257.639H154.684V238.354Z" fill="white"/>
<path d="M176.198 238.354H162.844V257.639H176.198V238.354Z" fill="white"/>
<path d="M133.539 282.282H120.186V301.568H133.539V282.282Z" fill="white"/>
<path d="M155.054 282.282H141.7V301.568H155.054V282.282Z" fill="white"/>
<path d="M176.569 282.282H163.215V301.568H176.569V282.282Z" fill="white"/>
<path d="M133.91 326.211H120.556V345.497H133.91V326.211Z" fill="white"/>
<path d="M155.425 326.211H142.071V345.497H155.425V326.211Z" fill="white"/>
<path d="M176.939 326.211H163.585V345.497H176.939V326.211Z" fill="white"/>
<path d="M134.281 370.139H120.927V389.424H134.281V370.139Z" fill="white"/>
<path d="M155.796 370.139H142.442V389.424H155.796V370.139Z" fill="white"/>
<path d="M155.796 421.568H142.442V457.997H155.796V421.568Z" fill="white"/>
<path d="M177.311 370.139H163.957V389.424H177.311V370.139Z" fill="white"/>
<path d="M196.6 -9.14648H190.665V27.2821H196.6V-9.14648Z" fill="#3F3D56"/>
<path d="M302.69 181.568H292.303V203.794H302.69V181.568Z" fill="#FFDD57"/>
<path d="M301.947 201.889H213.663V459.068H301.947V201.889Z" fill="#FFDD57"/>
<path d="M337.558 201.889H301.947V459.068H337.558V201.889Z" fill="#3F3D56"/>
<path d="M244.451 238.354H231.097V257.639H244.451V238.354Z" fill="white"/>
<path d="M265.966 238.354H252.612V257.639H265.966V238.354Z" fill="white"/>
<path d="M287.48 238.354H274.126V257.639H287.48V238.354Z" fill="white"/>
<path d="M244.823 282.282H231.469V301.568H244.823V282.282Z" fill="white"/>
<path d="M266.336 282.282H252.982V301.568H266.336V282.282Z" fill="white"/>
<path d="M287.852 282.282H274.498V301.568H287.852V282.282Z" fill="white"/>
<path d="M245.193 326.211H231.839V345.497H245.193V326.211Z" fill="white"/>
<path d="M266.708 326.211H253.354V345.497H266.708V326.211Z" fill="white"/>
<path d="M288.223 326.211H274.869V345.497H288.223V326.211Z" fill="white"/>
<path d="M245.564 370.139H232.21V389.424H245.564V370.139Z" fill="white"/>
<path d="M267.079 370.139H253.725V389.424H267.079V370.139Z" fill="white"/>
<path d="M267.079 421.568H253.725V457.997H267.079V421.568Z" fill="white"/>
<path d="M288.593 370.139H275.239V389.424H288.593V370.139Z" fill="white"/>
<path d="M307.882 181.568H301.947V203.159H307.882V181.568Z" fill="#3F3D56"/>
<path d="M364.755 408.797C375.425 408.797 384.074 396.306 384.074 380.897C384.074 365.488 375.425 352.996 364.755 352.996C354.085 352.996 345.436 365.488 345.436 380.897C345.436 396.306 354.085 408.797 364.755 408.797Z" fill="#FFDD57"/>
<path opacity="0.2" d="M379.126 362.261C380.928 368.348 381.172 375.163 379.816 381.487C378.459 387.811 375.589 393.232 371.719 396.782C367.85 400.332 363.232 401.779 358.692 400.864C354.151 399.95 349.984 396.733 346.935 391.79C348.035 395.509 349.683 398.839 351.763 401.547C353.843 404.255 356.306 406.278 358.982 407.476C361.657 408.673 364.48 409.016 367.257 408.481C370.033 407.946 372.695 406.545 375.059 404.376C377.424 402.208 379.433 399.323 380.948 395.921C382.464 392.519 383.449 388.683 383.836 384.677C384.223 380.671 384.002 376.591 383.189 372.72C382.375 368.85 380.989 365.281 379.126 362.261V362.261Z" fill="black"/>
<path d="M364.808 380.897H364.861L365.816 460H363.8L364.808 380.897Z" fill="#3F3D56"/>
<path d="M368.326 423.983L367.881 422.762L364.687 425.19L365.132 426.411L368.326 423.983Z" fill="#3F3D56"/>
<path d="M421.553 382.138C437.778 382.138 450.931 363.142 450.931 339.71C450.931 316.278 437.778 297.282 421.553 297.282C405.328 297.282 392.175 316.278 392.175 339.71C392.175 363.142 405.328 382.138 421.553 382.138Z" fill="#FFDD57"/>
<path d="M83.9953 382.138C100.22 382.138 113.373 363.142 113.373 339.71C113.373 316.278 100.22 297.282 83.9953 297.282C67.7702 297.282 54.6172 316.278 54.6172 339.71C54.6172 363.142 67.7702 382.138 83.9953 382.138Z" fill="#FFDD57"/>
<path opacity="0.2" d="M443.406 311.371C446.147 320.629 446.518 330.992 444.455 340.608C442.392 350.225 438.028 358.469 432.143 363.867C426.259 369.265 419.237 371.465 412.332 370.075C405.428 368.684 399.091 363.793 394.454 356.275C396.128 361.931 398.633 366.994 401.796 371.113C404.96 375.231 408.705 378.308 412.773 380.128C416.842 381.949 421.135 382.47 425.357 381.657C429.579 380.843 433.627 378.713 437.222 375.415C440.817 372.118 443.873 367.73 446.178 362.558C448.482 357.385 449.981 351.55 450.569 345.458C451.157 339.366 450.821 333.163 449.584 327.277C448.348 321.391 446.24 315.964 443.406 311.371V311.371Z" fill="black"/>
<path opacity="0.2" d="M105.849 311.371C108.589 320.629 108.961 330.992 106.897 340.608C104.834 350.225 100.47 358.469 94.5858 363.867C88.7012 369.265 81.6793 371.465 74.7748 370.075C67.8704 368.684 61.5333 363.793 56.896 356.275C58.57 361.931 61.0754 366.994 64.2387 371.113C67.402 375.231 71.1475 378.308 75.2157 380.128C79.2839 381.949 83.5776 382.47 87.7992 381.657C92.0209 380.843 96.0695 378.713 99.6647 375.415C103.26 372.118 106.316 367.73 108.62 362.558C110.925 357.385 112.423 351.55 113.011 345.458C113.599 339.366 113.264 333.163 112.027 327.277C110.79 321.391 108.682 315.964 105.849 311.371V311.371Z" fill="black"/>
<path d="M421.634 339.709H421.714L423.167 459.999H420.1L421.634 339.709Z" fill="#3F3D56"/>
<path d="M84.0755 339.709H84.1563L85.6089 459.999H82.542L84.0755 339.709Z" fill="#3F3D56"/>
<path d="M426.983 405.231L426.306 403.374L421.45 407.066L422.127 408.923L426.983 405.231Z" fill="#3F3D56"/>
<path d="M89.4248 405.231L88.748 403.374L83.8917 407.066L84.5685 408.923L89.4248 405.231Z" fill="#3F3D56"/>
<path d="M374.959 68.3566L381.788 60.4679C376.483 59.6225 374.303 63.8014 373.411 67.109C369.266 64.6233 364.753 67.8809 364.753 67.8809L378.418 75.0452C377.729 72.3861 376.529 70.0658 374.959 68.3566V68.3566Z" fill="#3F3D56"/>
<path d="M262.934 136.928L269.763 129.039C264.458 128.194 262.278 132.373 261.386 135.68C257.241 133.195 252.729 136.452 252.729 136.452L266.393 143.617C265.704 140.957 264.504 138.637 262.934 136.928Z" fill="#3F3D56"/>
<path d="M122.411 445.139C120.596 445.139 118.812 445.83 117.241 447.142C115.645 445.058 113.664 443.687 111.539 443.197C109.414 442.707 107.236 443.118 105.27 444.381C103.303 445.644 101.633 447.703 100.462 450.311C99.2904 452.918 98.6683 455.96 98.6709 459.067H132.76C132.574 455.286 131.404 451.747 129.483 449.163C127.563 446.578 125.036 445.141 122.411 445.139V445.139Z" fill="#3F3D56"/>
<path d="M237.403 445.139C235.588 445.139 233.804 445.83 232.233 447.142C230.637 445.058 228.656 443.687 226.531 443.197C224.406 442.707 222.228 443.118 220.262 444.381C218.296 445.644 216.625 447.703 215.454 450.311C214.283 452.918 213.66 455.96 213.663 459.067H247.752C247.567 455.286 246.396 451.747 244.475 449.163C242.555 446.578 240.028 445.141 237.403 445.139V445.139Z" fill="#3F3D56"/>
<path d="M388.748 445.139C386.933 445.139 385.149 445.83 383.578 447.142C381.981 445.058 380.001 443.687 377.876 443.197C375.751 442.707 373.573 443.118 371.607 444.381C369.64 445.644 367.97 447.703 366.799 450.311C365.627 452.918 365.005 455.96 365.008 459.067H399.097C398.911 455.286 397.74 451.747 395.82 449.163C393.9 446.578 391.373 445.141 388.748 445.139V445.139Z" fill="#3F3D56"/>
<path d="M461.452 445.139C459.637 445.139 457.853 445.83 456.282 447.142C454.686 445.058 452.705 443.687 450.58 443.197C448.455 442.707 446.277 443.118 444.311 444.381C442.344 445.644 440.674 447.703 439.503 450.311C438.331 452.918 437.709 455.96 437.712 459.067H471.801C471.615 455.286 470.444 451.747 468.524 449.163C466.604 446.578 464.077 445.141 461.452 445.139V445.139Z" fill="#3F3D56"/>
<path d="M123.895 445.139C122.08 445.139 120.296 445.83 118.725 447.142C117.128 445.058 115.148 443.687 113.023 443.197C110.898 442.707 108.72 443.118 106.754 444.381C104.787 445.644 103.117 447.703 101.946 450.311C100.774 452.918 100.152 455.96 100.155 459.067H134.244C134.058 455.286 132.887 451.747 130.967 449.163C129.047 446.578 126.52 445.141 123.895 445.139V445.139Z" fill="#3F3D56"/>
</svg>
