<svg width="480" height="480" viewBox="0 0 480 480" fill="none" xmlns="http://www.w3.org/2000/svg">
<path d="M134.791 108.605C154.369 108.605 170.239 89.6513 170.239 66.2704C170.239 42.8895 154.369 23.9355 134.791 23.9355C115.214 23.9355 99.3433 42.8895 99.3433 66.2704C99.3433 89.6513 115.214 108.605 134.791 108.605Z" fill="#FF6584"/>
<path d="M341.786 78.6143H299.266V32.4502L341.786 78.6143Z" fill="#3F3D56"/>
<path d="M346.754 77.1035H132.851V430.037H346.754V77.1035Z" fill="#E6E6E6"/>
<path d="M179.356 101.849H154.191V165.177H179.356V101.849Z" fill="white"/>
<path d="M218.281 101.849H193.116V165.177H218.281V101.849Z" fill="white"/>
<path d="M176.04 191.608H150.875V254.937H176.04V191.608Z" fill="white"/>
<path d="M218.281 191.608H193.116V254.937H218.281V191.608Z" fill="white"/>
<path d="M176.04 274.66H150.875V337.989H176.04V274.66Z" fill="white"/>
<path d="M217.333 273.528H192.168V336.857H217.333V273.528Z" fill="white"/>
<path d="M253.91 366.85H228.745V430.178H253.91V366.85Z" fill="#CCCCCC"/>
<path d="M291.93 273.528H266.765V336.857H291.93V273.528Z" fill="white"/>
<path d="M334.171 273.528H309.006V336.857H334.171V273.528Z" fill="white"/>
<path d="M292.878 190.938H267.712V254.267H292.878V190.938Z" fill="white"/>
<path d="M335.119 190.938H309.954V254.267H335.119V190.938Z" fill="white"/>
<path d="M292.878 101.849H267.712V165.177H292.878V101.849Z" fill="white"/>
<path d="M335.119 101.849H309.954V165.177H335.119V101.849Z" fill="white"/>
<path d="M346.754 158.679H132.851V168.339H346.754V158.679Z" fill="#3F3D56"/>
<path d="M346.754 233.814H132.851V239.181H346.754V233.814Z" fill="#3F3D56"/>
<path d="M346.754 216.64H132.851V222.006H346.754V216.64Z" fill="#3F3D56"/>
<path d="M153.971 342.224V299.289H149.477V342.224H153.971Z" fill="#3F3D56"/>
<path d="M179.136 342.224V299.289H174.642V342.224H179.136Z" fill="#3F3D56"/>
<path d="M204.301 342.224V299.289H199.807V342.224H204.301Z" fill="#3F3D56"/>
<path d="M229.466 342.224V299.289H224.973V342.224H229.466Z" fill="#3F3D56"/>
<path d="M254.632 342.224V299.289H250.138V342.224H254.632Z" fill="#3F3D56"/>
<path d="M279.797 342.224V299.289H275.303V342.224H279.797Z" fill="#3F3D56"/>
<path d="M304.962 342.224V299.289H300.468V342.224H304.962Z" fill="#3F3D56"/>
<path d="M330.127 342.224V299.289H325.633V342.224H330.127Z" fill="#3F3D56"/>
<path d="M154.42 260.648V217.714H149.927V260.648H154.42Z" fill="#3F3D56"/>
<path d="M179.586 260.648V217.714H175.092V260.648H179.586Z" fill="#3F3D56"/>
<path d="M204.751 260.648V217.714H200.257V260.648H204.751Z" fill="#3F3D56"/>
<path d="M229.916 260.648V217.714H225.422V260.648H229.916Z" fill="#3F3D56"/>
<path d="M255.081 260.648V217.714H250.587V260.648H255.081Z" fill="#3F3D56"/>
<path d="M280.246 260.648V217.714H275.752V260.648H280.246Z" fill="#3F3D56"/>
<path d="M305.411 260.648V217.714H300.917V260.648H305.411Z" fill="#3F3D56"/>
<path d="M330.576 260.648V217.714H326.082V260.648H330.576Z" fill="#3F3D56"/>
<path d="M154.42 165.118V122.184H149.927V165.118H154.42Z" fill="#3F3D56"/>
<path d="M179.586 165.118V122.184H175.092V165.118H179.586Z" fill="#3F3D56"/>
<path d="M204.751 165.118V122.184H200.257V165.118H204.751Z" fill="#3F3D56"/>
<path d="M229.916 165.118V122.184H225.422V165.118H229.916Z" fill="#3F3D56"/>
<path d="M255.081 165.118V122.184H250.587V165.118H255.081Z" fill="#3F3D56"/>
<path d="M280.246 165.118V122.184H275.752V165.118H280.246Z" fill="#3F3D56"/>
<path d="M305.411 165.118V122.184H300.917V165.118H305.411Z" fill="#3F3D56"/>
<path d="M330.576 165.118V122.184H326.082V165.118H330.576Z" fill="#3F3D56"/>
<path d="M346.754 137.212H132.851V142.579H346.754V137.212Z" fill="#3F3D56"/>
<path d="M346.754 120.037H132.851V125.404H346.754V120.037Z" fill="#3F3D56"/>
<path d="M346.754 252.062H132.851V261.722H346.754V252.062Z" fill="#3F3D56"/>
<path d="M356.597 73.1318H123.007V87.5272H356.597V73.1318Z" fill="#3F3D56"/>
<path d="M179.404 380.544V366.85H165.645V380.544H178.257H179.404Z" fill="white"/>
<path d="M178.257 391.498H165.645V405.192H179.404V391.498H178.257Z" fill="white"/>
<path d="M202.336 366.85H188.577V380.543H202.336V366.85Z" fill="white"/>
<path d="M202.336 391.499H188.577V405.193H202.336V391.499Z" fill="white"/>
<path d="M291.627 380.544V366.85H277.867V380.544H290.48H291.627Z" fill="white"/>
<path d="M290.48 391.498H277.867V405.192H291.627V391.498H290.48Z" fill="white"/>
<path d="M314.559 366.85H300.799V380.543H314.559V366.85Z" fill="white"/>
<path d="M314.559 391.499H300.799V405.193H314.559V391.499Z" fill="white"/>
<path d="M346.754 333.637H132.851V343.297H346.754V333.637Z" fill="#3F3D56"/>
<path d="M346.754 316.463H132.851V321.83H346.754V316.463Z" fill="#3F3D56"/>
<path d="M346.754 299.289H132.851V304.656H346.754V299.289Z" fill="#3F3D56"/>
<path d="M197.608 425.436C197.609 425.137 197.605 424.84 197.598 424.544C197.406 416.632 190.834 414.486 187.31 418.231C186.199 417.078 184.775 416.443 183.303 416.443C181.83 416.443 180.407 417.078 179.295 418.231C175.757 414.545 169.316 416.538 169.103 424.361C169.095 424.656 169.091 424.954 169.09 425.252C169.101 426.897 169.185 428.541 169.343 430.175H197.359C197.511 428.602 197.594 427.02 197.608 425.436V425.436Z" fill="#FFDD57"/>
<path d="M308.954 425.436C308.954 425.137 308.951 424.84 308.944 424.544C308.752 416.632 302.179 414.486 298.656 418.231C297.544 417.078 296.121 416.443 294.649 416.443C293.176 416.443 291.753 417.078 290.641 418.231C287.103 414.545 280.662 416.538 280.449 424.361C280.441 424.656 280.437 424.954 280.436 425.252C280.446 426.897 280.531 428.541 280.689 430.175H308.705C308.857 428.602 308.94 427.02 308.954 425.436Z" fill="#FFDD57"/>
<path d="M462.604 430.71H458.271L459.715 329.631H461.16L462.604 430.71Z" fill="#E6E6E6"/>
<path d="M466.214 265.994L473.208 253.085C471.134 246.243 468.738 239.545 466.033 233.025L461.51 237.387L465.091 230.778C461.679 222.755 458.993 217.7 458.993 217.7C458.993 217.7 444.966 244.098 440.28 272.048L449.255 288.613L439.32 279.029C438.966 282.285 438.784 285.564 438.774 288.847C438.774 321.949 447.827 348.783 458.993 348.783C470.16 348.783 479.212 321.949 479.212 288.847C479.212 278.585 477.268 267.849 474.587 257.918L466.214 265.994Z" fill="#E6E6E6"/>
<path d="M447.348 289.33H354.913V370.614H354.969V386.797L368.519 370.614H447.348V289.33Z" fill="#FFDD57"/>
<path d="M330.454 462.927H248.446V466.798H330.454V462.927Z" fill="#E6E6E6"/>
<path d="M480 462.927H397.548V466.798H480V462.927Z" fill="#E6E6E6"/>
<path d="M181.458 462.927H99.3433V466.798H181.458V462.927Z" fill="#E6E6E6"/>
<path d="M479.663 430.091H0V431.17H479.663V430.091Z" fill="#3F3D56"/>
<path d="M376.21 448.732L385.867 448.738L385.868 446.908L376.211 446.901L376.21 448.732Z" fill="#3F3D56"/>
<path d="M306.39 447.314L308.382 447.864L384.105 447.913L384.786 446.018C385.973 442.768 386.381 439.188 385.963 435.677C385.637 433.06 384.82 430.46 382.963 429.331L379.603 402.601L337.71 402.512L321.501 418.125C321.501 418.125 313.855 417.961 309.702 424.136C308.203 426.433 307.319 429.215 307.163 432.12L306.999 435.333L306.39 447.314Z" fill="#FFDD57"/>
<path d="M323.021 458.034C328.185 458.034 332.371 453.035 332.371 446.867C332.371 440.7 328.185 435.7 323.021 435.7C317.857 435.7 313.67 440.7 313.67 446.867C313.67 453.035 317.857 458.034 323.021 458.034Z" fill="#3F3D56"/>
<path d="M323.021 452.744C325.739 452.744 327.942 450.113 327.942 446.867C327.942 443.621 325.739 440.989 323.021 440.989C320.303 440.989 318.1 443.621 318.1 446.867C318.1 450.113 320.303 452.744 323.021 452.744Z" fill="#CCCCCC"/>
<path d="M369.16 458.063C374.324 458.063 378.51 453.064 378.51 446.896C378.51 440.729 374.324 435.729 369.16 435.729C363.996 435.729 359.81 440.729 359.81 446.896C359.81 453.064 363.996 458.063 369.16 458.063Z" fill="#3F3D56"/>
<path d="M369.16 452.774C371.877 452.774 374.081 450.143 374.081 446.897C374.081 443.651 371.877 441.02 369.16 441.02C366.442 441.02 364.238 443.651 364.238 446.897C364.238 450.143 366.442 452.774 369.16 452.774Z" fill="#CCCCCC"/>
<path d="M327.941 416.3L350.56 416.312H353.321L357.983 416.316V415.909L357.986 411.014L357.989 405.516H354.888L352.127 405.513L347.236 405.509H344.475L338.829 405.505L327.941 416.3Z" fill="white"/>
<path d="M361.663 416.32L373.617 416.327L373.62 413.526V408.63L373.624 405.528H371.873L369.112 405.524L361.666 405.521L361.663 416.32Z" fill="white"/>
<path d="M356.444 427.852L357.977 427.853L357.978 424.374L356.445 424.373L356.444 427.852Z" fill="#3F3D56"/>
<path d="M334.071 421.247L334.072 419.416L331.159 419.414L331.159 421.245L334.071 421.247Z" fill="#3F3D56"/>
<path d="M332.997 420.219L332.828 420.219C331.978 420.218 331.164 419.814 330.563 419.097C329.963 418.379 329.626 417.405 329.626 416.391V416.391C329.626 415.376 329.964 414.403 330.566 413.686C331.167 412.969 331.982 412.566 332.831 412.566L333 412.567L332.997 420.219Z" fill="#3F3D56"/>
<path d="M306.999 435.333C308.158 435.484 309.324 435.141 310.293 434.365C311.261 433.589 311.969 432.43 312.292 431.092C312.615 429.754 312.532 428.323 312.058 427.05C311.584 425.778 310.75 424.746 309.701 424.137C308.203 426.433 307.318 429.215 307.162 432.12L306.999 435.333Z" fill="#3F3D56"/>
<path d="M352.126 405.513L357.983 415.909L357.986 411.014L354.888 405.517L352.126 405.513Z" fill="#F2F2F2"/>
<path d="M369.112 405.524L373.62 413.526V408.63L371.873 405.528L369.112 405.524Z" fill="#F2F2F2"/>
<path d="M344.475 405.509L350.56 416.312H353.321L347.236 405.509H344.475Z" fill="#F2F2F2"/>
<path d="M221.707 0.676115L221.645 0.716764C220.97 1.15755 220.214 1.3901 219.444 1.39333C218.675 1.39655 217.917 1.17034 217.24 0.735213C217.201 0.710064 217.162 0.68523 217.124 0.660713C216.446 0.228893 215.69 0.0045184 214.922 0.0076847C214.154 0.010851 213.399 0.241461 212.724 0.678857L212.666 0.716764C211.991 1.15755 211.234 1.3901 210.465 1.39333C209.696 1.39655 208.938 1.17034 208.261 0.735213C208.22 0.709105 208.18 0.683336 208.14 0.657903C207.471 0.228062 206.723 0.00231094 205.963 0.000704807C205.203 -0.000901324 204.454 0.221689 203.783 0.648698C201.735 1.96638 198.965 4.2193 198.977 6.7636C198.978 6.86422 198.982 6.96474 198.991 7.06477C199.23 9.70705 206.446 10.3803 210.41 9.13507C213.365 9.94034 216.434 9.94034 219.389 9.13507C223.336 10.4002 230.699 9.67541 230.915 7.00282C230.923 6.90268 230.927 6.80212 230.926 6.70152C230.914 4.15583 228.12 1.92653 226.058 0.627394C225.386 0.207168 224.637 -0.00825765 223.878 0.000242106C223.119 0.00874186 222.373 0.240901 221.707 0.676115V0.676115Z" fill="#E6E6E6"/>
<path d="M420.511 87.9154L420.448 87.956C419.774 88.3968 419.017 88.6294 418.248 88.6326C417.479 88.6358 416.721 88.4096 416.044 87.9745C416.005 87.9493 415.966 87.9245 415.927 87.9C415.25 87.4682 414.493 87.2438 413.726 87.2469C412.958 87.2501 412.202 87.4807 411.528 87.9181L411.469 87.956C410.794 88.3968 410.038 88.6294 409.269 88.6326C408.5 88.6358 407.742 88.4096 407.065 87.9745C407.024 87.9484 406.984 87.9226 406.944 87.8972C406.274 87.4673 405.526 87.2416 404.766 87.24C404.006 87.2384 403.258 87.4609 402.587 87.888C400.538 89.2056 397.769 91.4586 397.781 94.0029C397.781 94.1035 397.786 94.204 397.795 94.304C398.033 96.9463 405.25 97.6196 409.214 96.3743C412.169 97.1796 415.238 97.1796 418.193 96.3743C422.14 97.6395 429.503 96.9147 429.718 94.2421C429.726 94.1419 429.73 94.0414 429.73 93.9408C429.718 91.3951 426.923 89.1658 424.862 87.8666C424.189 87.4464 423.44 87.231 422.681 87.2395C421.922 87.248 421.177 87.4802 420.511 87.9154V87.9154Z" fill="#E6E6E6"/>
<path d="M72.3727 92.7855L72.3102 92.8261C71.6354 93.2669 70.8791 93.4995 70.1099 93.5027C69.3407 93.5059 68.583 93.2797 67.9056 92.8446C67.8665 92.8194 67.8277 92.7946 67.7891 92.7701C67.1117 92.3383 66.3552 92.1139 65.5874 92.1171C64.8195 92.1202 64.0643 92.3508 63.3894 92.7882L63.3311 92.8261C62.6563 93.2669 61.8999 93.4995 61.1308 93.5027C60.3616 93.5059 59.6039 93.2797 58.9265 92.8446C58.8859 92.8185 58.8456 92.7927 58.8056 92.7673C58.1362 92.3374 57.3882 92.1117 56.6282 92.1101C55.8682 92.1085 55.1195 92.331 54.4489 92.7581C52.4001 94.0757 49.6304 96.3287 49.6426 98.873C49.6431 98.9736 49.6479 99.0741 49.6569 99.1741C49.8952 101.816 57.1114 102.49 61.0756 101.244C64.0306 102.05 67.0996 102.05 70.0547 101.244C74.002 102.51 81.365 101.785 81.5802 99.1122C81.5883 99.0121 81.5921 98.9115 81.5916 98.8109C81.5795 96.2652 78.7853 94.0359 76.7237 92.7368C76.0511 92.3165 75.3021 92.1011 74.5431 92.1096C73.7841 92.1181 73.0386 92.3503 72.3727 92.7855V92.7855Z" fill="#E6E6E6"/>
<path d="M59.508 468.841H49.8511V470.671H59.508V468.841Z" fill="#3F3D56"/>
<path d="M129.329 469.25L127.336 469.801L51.6138 469.849L50.9329 467.955C49.7453 464.705 49.3377 461.124 49.7556 457.614C50.0817 454.997 50.899 452.397 52.7551 451.267L56.1154 424.538L98.0089 424.448L114.217 440.061C114.217 440.061 121.863 439.897 126.017 446.073C127.515 448.369 128.4 451.151 128.556 454.057L128.72 457.269L129.329 469.25Z" fill="#FFDD57"/>
<path d="M112.698 479.971C117.862 479.971 122.048 474.971 122.048 468.804C122.048 462.636 117.862 457.637 112.698 457.637C107.533 457.637 103.347 462.636 103.347 468.804C103.347 474.971 107.533 479.971 112.698 479.971Z" fill="#3F3D56"/>
<path d="M112.698 474.681C115.416 474.681 117.619 472.05 117.619 468.804C117.619 465.558 115.416 462.927 112.698 462.927C109.98 462.927 107.776 465.558 107.776 468.804C107.776 472.05 109.98 474.681 112.698 474.681Z" fill="#CCCCCC"/>
<path d="M66.5589 480C71.7229 480 75.9092 475 75.9092 468.833C75.9092 462.666 71.7229 457.666 66.5589 457.666C61.3948 457.666 57.2085 462.666 57.2085 468.833C57.2085 475 61.3948 480 66.5589 480Z" fill="#3F3D56"/>
<path d="M66.559 474.71C69.2769 474.71 71.4802 472.078 71.4802 468.832C71.4802 465.586 69.2769 462.955 66.559 462.955C63.841 462.955 61.6377 465.586 61.6377 468.832C61.6377 472.078 63.841 474.71 66.559 474.71Z" fill="#CCCCCC"/>
<path d="M107.778 438.236L85.1587 438.248H82.3976L77.736 438.252V437.845L77.7327 432.95L77.7295 427.453H80.8309L83.592 427.448L88.4827 427.444H91.2438L96.8902 427.44L107.778 438.236Z" fill="white"/>
<path d="M74.0553 438.256L62.1012 438.264L62.098 435.462V430.567L62.0947 427.465H63.8451L66.6062 427.461L74.0521 427.457L74.0553 438.256Z" fill="white"/>
<path d="M79.2721 446.309H77.7393V449.787H79.2721V446.309Z" fill="#3F3D56"/>
<path d="M104.562 443.179L104.562 441.349L101.649 441.35L101.65 443.181L104.562 443.179Z" fill="#3F3D56"/>
<path d="M102.721 434.503H102.889C103.31 434.503 103.727 434.602 104.115 434.794C104.504 434.986 104.857 435.268 105.155 435.624C105.452 435.979 105.688 436.401 105.849 436.865C106.01 437.329 106.093 437.827 106.093 438.329V438.329C106.093 439.344 105.755 440.317 105.155 441.034C104.554 441.752 103.739 442.155 102.889 442.155H102.721V434.503H102.721Z" fill="#3F3D56"/>
<path d="M128.72 457.27C127.561 457.42 126.394 457.077 125.426 456.302C124.458 455.526 123.75 454.367 123.427 453.029C123.104 451.691 123.186 450.259 123.66 448.987C124.134 447.715 124.969 446.683 126.017 446.073C127.516 448.37 128.4 451.152 128.556 454.057L128.72 457.27Z" fill="#3F3D56"/>
<path d="M83.5922 427.449L77.7361 437.846L77.7329 432.951L80.8311 427.454L83.5922 427.449Z" fill="#F2F2F2"/>
<path d="M66.6063 427.461L62.0981 435.462V430.567L63.8452 427.465L66.6063 427.461Z" fill="#F2F2F2"/>
<path d="M91.2437 427.444L85.1586 438.248H82.3975L88.4826 427.444H91.2437Z" fill="#F2F2F2"/>
<path d="M397.892 347.296L386.088 329.171L392.952 322.795L398.541 331.376L417.422 307.574L423.735 314.718L397.892 347.296Z" fill="white"/>
<path d="M3.4248 309.897H95.8597V391.181H95.8035V407.364L82.2531 391.181H3.4248V309.897Z" fill="#FFDD57"/>
<path d="M47.0222 369.798L35.2183 351.674L42.0829 345.297L47.6716 353.879L66.5519 330.077L72.8656 337.22L47.0222 369.798Z" fill="white"/>
</svg>
